<svg width="18" height="24" viewBox="0 0 18 24" fill="none" xmlns="http://www.w3.org/2000/svg">
<path fill-rule="evenodd" clip-rule="evenodd" d="M9.00006 24C9.23876 24 9.46768 23.9097 9.63646 23.749C9.80524 23.5882 9.90006 23.3702 9.90006 23.1429V2.92763L15.5629 8.32214C15.7319 8.48308 15.9611 8.5735 16.2001 8.5735C16.4391 8.5735 16.6683 8.48308 16.8373 8.32214C17.0063 8.16121 17.1012 7.94293 17.1012 7.71533C17.1012 7.48772 17.0063 7.26944 16.8373 7.10851L9.63726 0.251802C9.55366 0.171984 9.45434 0.108658 9.345 0.0654494C9.23566 0.0222411 9.11844 0 9.00006 0C8.88168 0 8.76446 0.0222411 8.65512 0.0654494C8.54578 0.108658 8.44647 0.171984 8.36286 0.251802L1.16286 7.10851C1.07918 7.1882 1.01281 7.2828 0.967521 7.38692C0.922234 7.49104 0.898926 7.60263 0.898926 7.71533C0.898926 7.94293 0.993867 8.16121 1.16286 8.32214C1.33186 8.48308 1.56107 8.5735 1.80006 8.5735C2.03906 8.5735 2.26827 8.48308 2.43726 8.32214L8.10006 2.92763V23.1429C8.10006 23.3702 8.19489 23.5882 8.36367 23.749C8.53245 23.9097 8.76137 24 9.00006 24Z" fill="#282A33"/>
</svg>
